<?xml version="1.0" encoding="utf-8"?>
<svg xmlns="http://www.w3.org/2000/svg" width="250px" height="250px">
<path d="M141,106.62c-0.01,0.01-1.85,1.6-6.15,1.27c-1.31-0.45-3.02-1.04-3.95-1.3c-2.79-0.83-4.85-0.46-6.19,0.99c-0.89-0.67-3.26-2.14-5.32-0.63c-0.97,0.72-2.29,1.12-3.4,0.46l-6.68-1.88l-0.66,0.47l0.1,7.16c0.01,0.18,0.33,10.69-0.91,19.57l-0.04,0.3c2.33,1.81,6.29,1.43,9.4,0.41c0.75-0.25,2.8-0.78,4.1-0.52c0.17,1.06,0.97,2.56,3.21,2.62c2.37,0.07,3.4-1.62,3.66-2.67c0.41-0.32,2.16-1.39,5.34-0.04c2.69,1.14,6,0.68,8.36-1.02V107L141,106.62z M140.83,131.25c-0.8,0.47-3.75,1.98-6.91,0.63c-2.02-0.86-4.96-1.28-6.69,0.44c-0.21,1.38-1.32,2.24-2.69,2.19c-2.21-0.06-2.24-1.92-2.24-2v-0.37c-1.47-0.63-3.77-0.27-5.43,0.32c-4.64,1.51-7.21,0.46-7.95,0.07c1.17-8.71,0.89-18.75,0.87-19.33l-0.08-6.48l5.88,1.65c0.39,0.22,2.19,1.06,4.43-0.59c1.85-1.36,4.36,0.84,4.39,0.86l0.77-0.08c1.55-2.14,4.48-1.27,5.44-0.98c1.43,0.42,2.7,0.88,4.04,1.34c2.07,0.16,4.31,0.02,6.19-0.97V131.25z M139.75,106.42l-1.01,0.54c-0.1,0.08-2.36,1.86-5.1,0.53c-3.21-1.56-5.83-1.26-6.05-1.23c-0.24,0-2.13,0.08-2.98,1.52c-1.18-0.96-3.25-1.92-5.36-0.75c-2.8,1.55-8.49-1.09-8.55-1.11l-0.74,0.53l0.19,1.6c0.89,6.11,0.61,16.33,0.21,22.46c1.38,1.89,5.51-0.12,6.91-0.89c0.12-0.06,2.82-1.48,7.46,1.05l0.26,0.14c2.01-1.23,5.55-2.56,7.8-1.31c2.03,1.13,4.7,1.33,6.78,0.22l0.28-22.25L139.75,106.42z M138.54,129.05c-0.73,0.28-2.85,0.87-5.24-0.46c-3.05-1.69-7.32,0.47-8.34,1.04c-5.02-2.61-8.07-0.99-8.2-0.92c-3.57,1.96-4.95,1.58-5.34,1.38c0.44-7.67,0.6-17.11-0.33-22.88c1.8,0.72,6.07,2.15,8.65,0.72c2.34-1.3,4.44,0.83,4.64,1.05l0.92-0.2c0.37-1.47,2.3-1.49,2.32-1.49c0.1-0.01,2.57-0.32,5.55,1.13c2.3,1.12,4.29,0.44,5.36-0.12V129.05z M85.3,56.15c-2.46,2.39-3.96,6.92-6.32,9.39c-2.62,2.74-5.76,3.25-9.57,4.65c-5.99,2.19-10.88,6.88-13.11,12.27c-0.74,1.79-1.31,4.3-1.31,6.7c0,3.72,1.37,7.2,5.6,7.45c7.13,0.44,14.6-4.89,18.96-10.1c0.28-0.34,0.97-0.98,1.48-1.78c0.36-0.58,0.61-1.16,0.63-1.77c-1.15-0.03-3.2-0.55-4.05-1.75c-1.16-1.63-0.71-2.89,0.63-4.23c1.22-1.22,2.91-1.63,4.55-2.14c2.71-0.83,6.73-2.19,7.39-5.38c0.49-2.36-0.03-2.53,1.63-6.8c1.28-3.28,5.28-4.47,7.5-6.96c1.06-1.19,2.56-2.03,4.59-5.04c0.93-1.36,2.39-2.96,2.5-4.54C98.22,52.71,92.46,49.18,85.3,56.15z M97.96,54.49c-2.11,2.35-6.3,3.55-7.84,7.51c-1.75,4.5-1.29,4.98-1.72,7.1c-0.47,2.26-4.26,3.43-6.14,4.01c-1.9,0.61-3.76,1.05-5.3,2.59c-1.96,1.96-2.51,4.19-0.82,6.56c0.65,0.92,1.79,1.61,2.96,2.03c-0.3,0.37-0.64,0.7-0.94,1.06c-3.95,4.72-10.98,9.86-17.46,9.46c-3.45-0.2-4.02-3.51-3.87-6.39c0.1-1.77,0.53-3.74,1.16-5.26c2.16-5.22,6.79-9.34,12.06-11.26c3.68-1.34,7.28-1.98,10.26-5.1c2.62-2.73,4.03-7.16,6.28-9.34c4.99-4.86,8.91-4.01,14.67-6.24C100.01,52.69,98.99,53.33,97.96,54.49z M75.19,94.91c0,0-6.5,5.34-13.84,6.34c-7.34,1-4.92-6.92-4.92-6.92l1.71,0.5c-0.05,0.1-0.19,0.37-0.46,0.92c-1.08,2.17,1.17,2.75,1.17,2.75c6.67,0.42,14.76-5.5,14.76-5.5c11.61-8.74,8.59-11.01,8.59-11.01c-1.84,0.08-0.67-1.17-0.67-1.17c2.17-1.25,3.42,1.17,3.42,1.17C86.55,87.01,75.19,94.91,75.19,94.91z M104.02,184.41c4.31-1.56,7.9-5.22,12.09-7.12c0.21-0.56-0.57-0.54-0.59-1.21c-1.57-0.18-3.11,0.53-4.21,1.33c-3.01,2.06-7.29,3.84-9.84,3.49c-6.51-1.39-14.57-2.75-20.99-0.46c-2.84,0.66-7.85-3.51-9.63-5.67c-0.61,2.25,0,4.35,0.39,6.68c-1.54,0.32-5.5,0.67-6.08,2.39c7.15,0.15,14.11,6.45,20.9,1.25C88.01,183.72,100.56,185.63,104.02,184.41z M103.87,200.15c1.33-3.27,3.79-6.11,5.45-9.29c2.79-4.2,5.14-8.28,7.94-12.48c0.67,0.09,1.03,0.98,1.59,1.08c1.02,0.64,2.15,1.17,3.28,1.48c-2.36,3.63-5.38,7.84-8.07,11.81c-1.93,3.06-4.64,6.15-6.91,9.22c-0.43,0.57-1.22,0.25-1.78,0.05C104.68,201.47,104.12,201.04,103.87,200.15z M145.53,180c0.28-0.59,0.67-1.33,0.07-1.68c-2.48-0.94-4.74-2.22-7.23-3.5c-0.32,0.68-0.98,1.14-1.07,1.93c2.38,1.61,5,3.33,7.7,4.38C145.22,180.79,145.53,180,145.53,180z M187.46,178.82c-0.32,0.67-1.33,0.48-1.99,0.61c-1,0.14-1.89,0.38-2.66,0.85c0.49,1.77,0.98,3.55,1.03,5.55l-0.44,0.01c-2.4-2.28-4.9-3.78-8.23-3.25c-7.31,1.97-16.27,5.33-23.62,1.5c0.09-1.01,0.61-2.25,1.48-3.16c4.93,0.88,9.85,0.97,14.48-0.93C173.12,176.51,181.97,173.6,187.46,178.82z M137.51,180.54c3.49,5.6,6.87,11.09,10.58,16.8c0.24,0.66,0.03,1.34-0.17,2.01c-0.76,0.91-1.98,1.28-3.1,1.08c-4.63-6.35-9.14-12.71-13.44-19.18c1.21-0.81,2.76-1.3,3.85-2.33l-0.12-0.11C136.43,177.56,136.72,179.89,137.51,180.54z M147.65,171.13c-2.14-0.62-4.45,0.45-6.57,0.39c-0.89,0.36-2.92-0.6-2.77,0.74c1.97,2.85,6.82,0.38,8.47,4.02c1,3.99-1.17,6.73-3.33,9.57c-1.2,1.03,0.38,1.89,0.85,2.77c1.9,0.06,2.97-1.64,4.27-3.01c1.92-3.62,3.91-8.36,1.59-12.09C149.58,172.65,148.77,171.44,147.65,171.13z M129.68,183.98c0.17,2.45,0.82,5.67,3.41,6.61c1.13,0.53,1.9,0.06,3.13,0.25c0.69,0.99,1.17,2.09,1.87,3.19c-1.64,1.16-4.88,1.24-6.8,0.18c-3.74-2.14-4.19-6.81-3.51-10.74c0.21-0.68,0.19-1.46,0.84-1.92c0.56,0.21,0.89-0.25,1.34,0.08L129.68,183.98z M106.71,171.63c-2.19,1.73-4.01,4.46-4.17,7.14c0.58,0.77,2.13,0.28,3.24,0.25c0.33-0.23,0.66-0.57,1.1-0.81c0.92-3.15,3.31-5.78,6.18-7.19l-0.02-0.78C110.79,169.96,108.46,170.35,106.71,171.63z M126.53,183.28c-0.23,4.02-1.23,8.62-4.86,10.62c-2.09,1.17-4.98,1.47-7.13,0.29c0.64-1.25,1.39-2.27,2.26-3.41c2.67-0.29,5.43-1.59,6.81-4.08c0.74-1.58,1.59-3.28,1.88-5.18C126.71,181.27,126.73,182.38,126.53,183.28z M106.51,185.91c0.59,1.21,0.96,2.54,2.21,3.29c-0.76,1.02-1.52,1.6-2.38,2.74c-1.71-1.3-2.99-3.49-3.49-5.71C103.95,186.09,106.35,183.58,106.51,185.91z M123.16,169.2c-1.83,1.87-1.47,4.21,1.44,4.7c2.15,0.36,3.45-1.81,4.82-3.09c0.84-0.78,1.68-1.38,2.16-2.47l-7.4-0.52L123.16,169.2z M121.14,168.57c0,0-3.79,2.15,1.01,6.19c0,0,5.05,3.03,9.72-0.25c0,0,3.54-2.4,1.26-5.94l2.27-0.25c0,0,4.27,5.45-1.26,9.34c0,0-6.19,4.8-14.52,0.38c0,0-6.31-3.79-1.77-9.34L121.14,168.57z M132.19,173.09c-0.08,1.23-1.65,1.04-2.53,1.63c-0.67-0.21-1.33,0.37-1.9-0.06c0.29-1.57,1.96-1.95,2.82-3.2C131.48,171.44,131.84,172.43,132.19,173.09z M63.24,102.14l11.2,12.04c0,0,11.26-4,16.93-11.34L85.03,86.4C85.03,86.4,78.61,97.21,63.24,102.14z M89.7,106.09l-2.92,5.67c-1.84,2.59-9.92,5.26-9.92,5.26l-1.75-2C84.28,111.76,89.7,106.09,89.7,106.09z M84.78,114.42l-4.25,6.34l-3-3.17C81.28,117.09,84.78,114.42,84.78,114.42z M94.29,134.61l5,5.84c0,0,7.34-2.25,8.42-6.26l-6.67-12.34L94.29,134.61z M108.38,135.36l1.08,2c-4,5.42-8.42,5.51-8.42,5.51l-1.08-1.58C107.55,138.78,108.38,135.36,108.38,135.36z M109.96,138.11l7.17,10.93l-11.51-0.17l-4-5.17C108.46,142.36,109.96,138.11,109.96,138.11z M165.43,86.74l-6.34,16.43c5.67,7.34,16.93,11.34,16.93,11.34l11.2-12.04C171.85,97.54,165.43,86.74,165.43,86.74z M175.36,115.35l-1.75,2c0,0-8.09-2.67-9.92-5.26l-2.92-5.67C160.76,106.42,166.18,112.09,175.36,115.35z M172.94,117.93l-3,3.17l-4.25-6.34C165.68,114.76,169.18,117.43,172.94,117.93z M149.42,122.18l-6.67,12.34c1.08,4,8.42,6.26,8.42,6.26l5-5.84L149.42,122.18z M150.5,141.61l-1.08,1.59c0,0-4.42-0.09-8.42-5.51l1.08-2C142.08,135.69,142.92,139.11,150.5,141.61z M148.84,144.03l-4,5.17l-11.51,0.17l7.17-10.93C140.49,138.45,142,142.7,148.84,144.03z M176.86,93.33c-11.61-8.74-8.59-11.01-8.59-11.01c1.84,0.08,0.67-1.17,0.67-1.17c-2.17-1.25-3.42,1.17-3.42,1.17c-1.61,5.03,9.76,12.93,9.76,12.93s6.5,5.34,13.84,6.34c7.34,1,4.92-6.92,4.92-6.92l-1.73,0.46c0.02,0.05,0.15,0.31,0.48,0.96c1.08,2.17-1.17,2.75-1.17,2.75C184.95,99.25,176.86,93.33,176.86,93.33z M194.53,82.41c-2.23-5.39-7.12-10.08-13.11-12.27c-3.81-1.39-6.95-1.91-9.58-4.65c-2.36-2.47-3.87-7-6.32-9.39c-7.16-6.97-12.92-3.44-21.09-10.03c0.11,1.69,1.6,3.22,2.5,4.54c2.03,3.01,3.52,3.85,4.59,5.04c2.22,2.48,6.22,3.68,7.5,6.95c0.55,1.42,1.07,2.79,1.29,4.3c0.14,0.96,0.16,1.61,0.35,2.5c0.24,1.15,0.98,2.22,2.06,2.94c2.08,1.39,2.97,1.71,5.33,2.44c1.64,0.51,3.33,0.92,4.55,2.14c1.34,1.34,1.79,2.6,0.63,4.23c-0.83,1.16-2.7,1.67-4.05,1.75c0.05,1.47,1.25,2.51,2.12,3.55c4.2,5.02,11.27,10.13,18.17,10.13c4.66,0,6.39-3.16,6.39-7.47C195.84,86.7,195.27,84.2,194.53,82.41z M193.11,93.14c-0.86,1.36-2.15,1.63-3.67,1.63c-6.34,0-12.88-4.81-16.78-9.48c-0.32-0.35-0.63-0.7-0.95-1.06c1.17-0.42,2.31-1.11,2.96-2.03c1.69-2.37,1.14-4.6-0.82-6.56c-1.5-1.5-3.33-1.99-5.3-2.59c-2.21-0.68-2.93-0.93-4.85-2.22c-0.68-0.45-1.15-1.11-1.29-1.79c-0.16-0.79-0.21-1.6-0.33-2.4c-0.24-1.66-0.77-3.11-1.39-4.7c-1.53-3.92-5.81-5.23-7.84-7.5c-1.04-1.16-2.05-1.8-3.28-3.29c5.71,2.21,9.67,1.37,14.67,6.24c2.32,2.26,3.66,6.61,6.28,9.34c2.96,3.08,6.62,3.77,10.26,5.1c5.26,1.93,9.89,6.05,12.06,11.26c0.63,1.52,1.06,3.49,1.15,5.26C194.11,90.35,193.79,92.05,193.11,93.14z M36.75,168.33c0.8-0.37,0.88-0.66,0.54-1.4l-0.67-1.46c-1.3-2.86-3.71-3.04-8.28-0.95c-4.89,2.23-5.97,4.13-4.38,7.6l0.34,0.74c0.34,0.74,0.63,0.87,1.43,0.5L36.75,168.33z M26.54,160.46c4.78-2.18,8.96-0.61,11.35,4.64l3.78,8.27l-1.12,0.51l-0.52-1.14c-0.41-0.91-0.75-0.96-1.59-0.58l-10.84,4.94c-0.85,0.39-1.05,0.66-0.63,1.59l0.52,1.14l-1.1,0.5l-3.41-7.47C20.26,166.93,21.41,162.8,26.54,160.46z M30.34,139.92l-1.22,0.19l0.19,1.24c0.13,0.88-0.03,1.18-1.02,1.33l-5.57,0.85c-0.07-0.32-0.12-0.64-0.16-0.92c-0.41-2.65,0.28-3.25,2.79-3.8c1.26-0.26,2.48-0.26,3.49-1.03c0.95-0.71,1.31-1.92,1.05-3.58c-0.37-2.41-2.06-3.61-4.64-3.22c-0.07,0.01-0.11,0.02-0.18,0.03l0.18,1.17c1.5-0.21,2.3-0.05,2.4,0.62c0.16,1.04-1.58,1.07-3.5,2.04c-1.75,0.88-2.54,2.3-2.33,3.98l-0.16,0.03c-0.61-3.25-2.44-4.88-4.85-4.5c-2.74,0.42-3.89,2.74-3.26,6.83l1.55,10.14l1.2-0.18l-0.19-1.24c-0.14-0.9,0.07-1.21,1.04-1.36l11.78-1.8c0.97-0.15,1.24,0.09,1.38,0.99l0.19,1.24l1.22-0.19L30.34,139.92z M16.56,144.48c-1.13,0.17-1.3-0.06-1.54-1.58c-0.42-2.74,0.1-3.97,2.49-4.34c2.46-0.38,3.39,0.89,3.89,4.18c0.05,0.32,0.09,0.62,0.1,0.98L16.56,144.48z M27.66,122.66l0.13-1.16c0.11-0.99-0.15-1.21-1.07-1.31l-11.84-1.32c-0.92-0.1-1.24,0.03-1.36,1.04l-0.13,1.15l-1.2-0.13l1.68-15.08l6.03,0.48l-0.13,1.13c-3.68,0.43-5.1,1.91-5.5,5.48c-0.15,1.34-0.09,1.7,1.06,1.83l5.02,0.56c0.01-0.12,0.02-0.21,0.04-0.32c0.23-2.06-0.58-2.99-2.85-3.64l0.13-1.16l7.65,0.85l-0.13,1.16c-2.35,0.13-3.33,0.89-3.55,2.93c-0.01,0.12-0.02,0.21-0.04,0.32l5.57,0.62c1.13,0.13,1.29-0.21,1.45-1.62c0.43-3.88-0.72-5.79-4.45-7.12l0.22-1.15l6.23,1l-1.73,15.59L27.66,122.66z M17.87,93.36l-1.09-0.42l2.9-7.56l1.13,0.43l-0.21,0.54c-0.25,0.65-0.19,1.08,0.09,1.18c0.15,0.06,0.38,0.05,0.69-0.04l4.25-1.08l-1.6-2.71c-0.28-0.45-0.52-0.72-0.82-0.84c-0.83-0.32-1.36,0.23-1.91,1.66l-1.13-0.43l2.55-6.65l1.13,0.43c-0.66,1.71-0.05,2.6,0.76,3.93l2.56,4.25l8.41-2.11c0.99-0.24,1.6-0.61,1.81-1.15l0.13-0.35l1.11,0.42l-2.98,7.78l-1.11-0.42c0.32-1.02,0.39-1.55-0.02-1.7c-0.22-0.08-0.52,0-0.99,0.12l-4.28,1.08l1.43,2.44c0.41,0.68,0.82,1.11,1.28,1.29c0.89,0.34,1.46-0.31,2.09-1.94l1.11,0.42l-2.73,7.13l-1.11-0.43c0.54-1.86-0.27-2.99-1.3-4.73l-2.26-3.86l-8.44,2.2C18.51,92.43,18.18,92.58,17.87,93.36z M41.19,75.62l0.68-0.95c0.58-0.81,0.46-1.13-0.29-1.67l-9.69-6.93c-0.76-0.54-1.1-0.58-1.69,0.25l-0.67,0.95l-0.98-0.7l8.82-12.34l5.03,3.37l-0.66,0.92c-3.42-1.41-5.39-0.82-7.48,2.09c-0.79,1.1-0.91,1.43,0.03,2.11l4.11,2.94c0.07-0.09,0.12-0.17,0.19-0.27c1.2-1.68,0.95-2.89-0.71-4.57l0.68-0.95l6.27,4.48l-0.68,0.95c-2.12-1.03-3.34-0.85-4.53,0.82c-0.07,0.09-0.12,0.17-0.19,0.26l4.56,3.26c0.93,0.66,1.23,0.45,2.05-0.71c2.27-3.18,2.2-5.4-0.41-8.39l0.75-0.89l4.95,3.91L42.2,76.34L41.19,75.62z M57.44,56.87l-0.79-0.95l0.91-0.76c0.77-0.64,0.73-0.98,0.13-1.69l-7.65-9.13c-0.6-0.71-0.9-0.85-1.68-0.2l-0.93,0.78L46.65,44l7.06-5.92l0.78,0.93l-1.12,0.94c-0.77,0.64-0.71,0.99-0.12,1.71l7.6,9.08c0.75,0.89,1.1,0.69,2.15-0.19c2.87-2.41,3.29-4.55,1.54-8.06l0.97-0.66l3.85,5.06L57.44,56.87z M104.73,15.7l-1.14,0.21c-0.98,0.18-1.11,0.51-0.95,1.42l1.51,8.36c0.54,2.98,1.93,4.17,4.8,3.65c1.26-0.23,2.25-0.78,2.8-1.5c0.9-1.16,0.73-2.5,0.36-4.58l-1.08-6c-0.32-1.76-0.88-2.54-2.85-2.18c-0.04,0.01-0.11,0.02-0.16,0.03l-0.22-1.19l6.3-1.13l0.22,1.19c-1.83,0.5-2.08,1.3-1.77,3.02l1.12,6.21c0.32,1.78,0.55,3.16-0.04,4.52c-0.82,1.97-2.67,3.13-5.63,3.66c-4.51,0.81-7.14-0.67-7.8-4.32l-1.62-9c-0.16-0.92-0.4-1.18-1.39-1l-1.17,0.21l-0.22-1.19l8.72-1.57L104.73,15.7z M126.09,12.26l5.84,0.54l7.86,11.24l0.58-6.25c0.21-2.25-0.17-2.98-2.48-3.22l0.11-1.2l6.81,0.63l-0.11,1.2c-2.03-0.1-2.46,0.59-2.66,2.74l-1.18,12.79l-1.46-0.13l-9.72-13.94l-0.79,8.5c-0.2,2.15,0.22,2.99,2.41,3.24l-0.11,1.2l-6.65-0.61l0.11-1.2c2.12,0.01,2.54-0.72,2.73-2.76l0.93-10.05l-0.4-0.51c-0.55-0.74-0.86-0.92-1.94-1L126.09,12.26z M164.7,21.04l-1.26-0.42c-0.95-0.32-1.2-0.08-1.49,0.8l-3.78,11.3c-0.29,0.88-0.23,1.2,0.72,1.52l1.26,0.42l-0.39,1.17l-8.67-2.9l0.39-1.17l1.21,0.41c0.95,0.32,1.21,0.11,1.51-0.77l3.78-11.3c0.3-0.88,0.24-1.22-0.73-1.55l-1.21-0.41l0.38-1.15l8.67,2.9L164.7,21.04z M173.53,43.11l2.55-16.02c0.11-0.77-0.19-1.26-1.07-1.79l0.63-1.04l7.01,4.23l-0.63,1.04l-0.7-0.42c-0.62-0.37-1.04-0.39-1.24-0.07c-0.08,0.14-0.13,0.35-0.19,0.67l-1.74,10.23l7.07-5.41c0.37-0.29,0.62-0.58,0.8-0.88c0.53-0.88,0.14-1.54-1.21-2.41l0.64-1.06l5.8,3.5l-0.61,1.01c-1.14-0.63-2.52-0.38-4.07,0.8l-11.4,8.58L173.53,43.11z M188.47,51.38l0.81,0.83c0.7,0.71,1.03,0.65,1.7,0l8.51-8.34c0.66-0.65,0.77-0.98,0.05-1.71l-0.82-0.83l0.86-0.85l10.62,10.83l-4.19,4.37l-0.8-0.81c1.99-3.12,1.75-5.16-0.76-7.73c-0.95-0.96-1.26-1.15-2.09-0.33l-3.61,3.53c0.08,0.08,0.15,0.15,0.23,0.23c1.45,1.48,2.68,1.44,4.62,0.1l0.82,0.83l-5.5,5.39l-0.81-0.83c1.38-1.91,1.41-3.14-0.02-4.61c-0.08-0.08-0.15-0.15-0.23-0.23l-4.01,3.93c-0.81,0.8-0.65,1.13,0.34,2.14c2.74,2.79,4.94,3.11,8.33,1.05l0.75,0.89l-4.72,4.2l-10.98-11.2L188.47,51.38z M224.38,72.28l-4.93-9l-1.06,0.58l0.6,1.1c0.44,0.79,0.35,1.16-0.51,1.63l-10.45,5.72c-0.86,0.47-1.2,0.34-1.63-0.46l-0.6-1.1l-1.08,0.59l4.31,7.88l1.08-0.59l-0.6-1.1c-0.42-0.78-0.38-1.12,0.5-1.6l4.94-2.7c0.18,0.27,0.34,0.56,0.47,0.8c1.29,2.35,0.85,3.14-1.32,4.52c-1.09,0.68-2.24,1.09-2.93,2.16c-0.65,0.99-0.57,2.25,0.23,3.72c1.17,2.14,3.17,2.69,5.46,1.44c0.06-0.03,0.1-0.06,0.16-0.09l-0.57-1.04c-1.34,0.71-2.15,0.83-2.47,0.24c-0.51-0.92,1.12-1.54,2.59-3.12c1.34-1.43,1.61-3.03,0.83-4.54l0.14-0.08c1.69,2.84,3.96,3.74,6.11,2.57C226.08,78.48,226.37,75.91,224.38,72.28z M221.54,76.11c-2.18,1.2-3.48,0.32-5.08-2.6c-0.16-0.29-0.3-0.55-0.43-0.88l4.39-2.4c1-0.55,1.24-0.39,1.98,0.96C223.73,73.61,223.66,74.95,221.54,76.11z M223.01,95.29l0.28,1.15c-3.29,2.17-4.66,4.76-4.01,7.5c0.47,1.99,1.77,2.93,3.4,2.54c0.73-0.17,1.28-0.64,1.52-1.25c0.35-0.87,0.24-2.33,0.27-4.41c0.04-3.98,0.98-6.18,3.89-6.87c2.9-0.69,5.65,1.13,6.47,4.61c0.36,1.54,0.28,3.02-0.22,4.52l1.38,0.87l0.24,1l-5.91,1.69l-0.25-1.07c2.96-2.33,4.17-4.31,3.59-6.75c-0.46-1.95-1.65-2.82-3.16-2.46c-1.9,0.45-1.6,2.32-1.59,5.61c0.01,1.77-0.01,3.18-0.79,4.47c-0.67,1.12-1.88,1.95-3.42,2.32c-3.15,0.75-5.77-0.95-6.65-4.67c-0.44-1.86-0.36-3.43,0.36-5.06l-1.68-1.01l-0.23-0.98L223.01,95.29z M236.43,127.93l-0.02-1.33c-0.02-1-0.32-1.16-1.25-1.14l-11.91,0.2c-0.93,0.02-1.21,0.18-1.19,1.18l0.02,1.33l-1.23,0.02l-0.15-9.14l1.23-0.02l0.02,1.28c0.02,1,0.3,1.18,1.23,1.17l11.91-0.2c0.93-0.01,1.23-0.18,1.21-1.21l-0.02-1.28l1.21-0.02l0.15,9.14L236.43,127.93z M233.72,150.18c0.16-0.82-0.07-1.08-0.96-1.26l-11.84-2.36c-0.91-0.18-1.22-0.06-1.42,0.93l-0.22,1.12l-1.21-0.24l1.72-8.65l1.21,0.24l-0.23,1.14c-0.2,0.98,0.05,1.19,0.96,1.38l11.84,2.36c0.89,0.18,1.2,0.05,1.36-0.77c0.36-1.83-1.2-3.63-4.4-4.72l0.23-1.14l6.13,1.6l-3,15.04l-6.28-0.87l0.22-1.12C231.22,153.07,233.36,152,233.72,150.18z M230.79,164.79l-3.55,7.61l-1.1-0.51l0.28-0.61c0.29-0.63,0.25-0.98-0.13-1.16c-0.34-0.16-2.56,0.09-6.63,0.68l2.57,3.56c0.38,0.51,0.68,0.86,0.98,0.99c0.7,0.32,1.3,0.02,1.71-0.87l0.29-0.61l1.1,0.51l-2.87,6.16l-1.12-0.52c0.52-1.12,0.38-2.08-0.42-3.28l-4.14-6.09l-4.56-2.12c-0.84-0.39-1.17-0.34-1.6,0.56L211,170.4l-1.12-0.52l3.96-8.48l1.12,0.52l-0.59,1.27c-0.42,0.91-0.25,1.19,0.59,1.59l4.22,1.97l8.38-1.07c1.2-0.16,1.71-0.32,2.14-1.39L230.79,164.79z M92.65,231.56l1.23,0.32c1.17,0.31,1.3,0.17,1.56-0.85l2.18-8.33c0.28-1.05,0.13-1.24-0.94-1.52l-1.4-0.37l0.28-1.1c2.57,0.59,4.38,0.54,5.39-0.08l0.85,0.22l-3.15,12.01c-0.27,1.03-0.19,1.21,0.93,1.5l1.19,0.31l-0.29,1.11l-8.14-2.13L92.65,231.56z M117.03,228.07c-2.34-0.89-3.43-1.69-3.33-2.97c0.1-1.23,1.02-1.95,2.47-1.83c1.48,0.13,2.29,1.03,2.17,2.47C118.25,226.7,117.81,227.5,117.03,228.07z M114.16,230.73c2.83,1.1,4.14,1.48,3.99,3.26c-0.12,1.46-1.31,2.37-3.04,2.22c-1.78-0.15-2.69-1.19-2.55-2.92C112.66,232.03,113.29,231.07,114.16,230.73z M118.08,228.53c1.67-0.35,2.68-1.33,2.79-2.65c0.16-1.92-1.48-3.44-4.27-3.68c-3.11-0.26-5.26,1.54-5.47,4.08c-0.14,1.67,0.63,3.08,2.07,3.89c-1.94,0.09-3.14,1.17-3.28,2.83c-0.2,2.38,1.56,3.96,4.94,4.24c3.44,0.29,5.71-1.46,5.95-4.33C120.98,230.84,120.13,229.46,118.08,228.53z M133.41,226.64c-0.23-2.23,0.17-3.39,1.42-3.52c1.25-0.13,1.9,0.92,2.14,3.15c0.23,2.23-0.2,3.37-1.45,3.5C134.28,229.89,133.65,228.87,133.41,226.64z M137.45,229.63c0.43,4.14-0.37,6.36-2.18,6.54c-0.64,0.07-0.99-0.06-1.03-0.4c-0.03-0.34,0.7-0.73,0.6-1.69c-0.11-1.02-0.88-1.57-2.07-1.45c-1.19,0.13-1.82,0.89-1.69,2.16c0.16,1.56,1.77,2.64,4.1,2.39c3.91-0.41,6.23-3.68,5.7-8.7c-0.47-4.46-2.86-6.8-6.31-6.44c-3.02,0.32-4.94,2.64-4.66,5.33c0.28,2.66,2.13,4.3,4.61,4.05C135.79,231.3,136.72,230.71,137.45,229.63z M149.55,234.59l8.14-2.13l-0.29-1.11l-1.19,0.31c-1.11,0.29-1.27,0.18-1.55-0.85l-3.15-12.01l-0.85,0.22c-0.57,1.04-2.13,1.96-4.66,2.71l0.28,1.1l1.4-0.37c1.07-0.28,1.29-0.19,1.57,0.87l2.18,8.33c0.27,1.01,0.23,1.2-0.95,1.5l-1.23,0.32L149.55,234.59z M79.31,142.82l0.31-0.56c1.87,0.21,3.24-0.38,3.98-1.71c0.54-0.96,0.43-1.77-0.25-2.16c-0.31-0.17-0.66-0.17-0.95,0c-0.42,0.24-0.89,0.86-1.64,1.7c-1.41,1.6-2.5,2.18-3.72,1.49c-1.22-0.68-1.51-2.33-0.57-4.01c0.42-0.74,0.96-1.32,1.66-1.76l-0.16-0.81l0.27-0.48l2.59,1.27l-0.29,0.51c-1.81-0.04-2.92,0.37-3.58,1.55c-0.53,0.94-0.43,1.68,0.21,2.04c0.8,0.45,1.35-0.41,2.5-1.75c0.61-0.72,1.12-1.29,1.83-1.55c0.62-0.23,1.32-0.17,1.96,0.19c1.32,0.74,1.62,2.3,0.61,4.09c-0.5,0.9-1.08,1.51-1.9,1.93l0.21,0.96l-0.26,0.47L79.31,142.82z M88.99,126.27l-0.5,0.5c1.12,1.17,1.32,2.45,0.64,3.65c-0.92,1.63-2.16,1.7-4.28,0.51c-2.09-1.17-2.72-2.3-1.89-3.77c0.67-1.2,1.96-1.64,3.79-1.23l0.28-0.58l-2.86-1.4l-0.26,0.46l0.15,0.89c-0.69,0.38-1.23,0.95-1.67,1.74c-0.72,1.28-0.92,2.47-0.6,3.66c0.29,1.07,0.94,1.9,1.9,2.44c1.25,0.7,2.58,0.71,3.84,0.06c0.81-0.42,1.5-1.11,2.03-2.07C90.6,129.28,90.41,127.57,88.99,126.27z M88.29,116.87l-2.25,4.01l0.49,0.28l0.32-0.56c0.25-0.45,0.41-0.45,0.79-0.24l4.88,2.73c0.38,0.21,0.45,0.36,0.2,0.8l-0.31,0.56l0.5,0.29l2.25-4.02l-0.5-0.28l-0.33,0.58c-0.25,0.44-0.4,0.45-0.78,0.23l-4.88-2.73c-0.38-0.21-0.46-0.35-0.22-0.79l0.33-0.58L88.29,116.87z M96.46,118.4l3.85-6.88l-2.5-1.58l-0.32,0.49c1.36,1.28,1.47,2.37,0.51,4.09c-0.35,0.62-0.48,0.75-0.95,0.49l-2.29-1.29c0.03-0.05,0.05-0.09,0.08-0.14c0.5-0.9,1.08-1.08,2.12-0.72l0.29-0.51l-3.15-1.77l-0.29,0.51c0.86,0.71,1.02,1.28,0.51,2.19c-0.03,0.05-0.05,0.09-0.08,0.14l-2.06-1.16c-0.48-0.27-0.43-0.44-0.1-1.03c0.88-1.57,1.79-2,3.48-1.54l0.28-0.5l-2.52-1.3l-3.73,6.66l0.49,0.28l0.29-0.51c0.25-0.45,0.41-0.45,0.79-0.24l4.88,2.73c0.38,0.21,0.45,0.36,0.2,0.8l-0.28,0.51L96.46,118.4z M95.42,105.3c0.25-0.52,0.5-0.62,0.83-0.7l0.3-0.09l4.13,2.31c0.84,0.47,1.07,0.8,0.62,1.77l0.49,0.28l1.64-2.93l-0.49-0.28c-0.57,0.96-1.01,0.99-1.89,0.5l-3.49-1.96l8-1.84l0.36-0.64l-5.26-2.94c-0.89-0.5-1.09-0.82-0.63-1.73l-0.5-0.28l-1.68,3l0.5,0.28c0.58-1.02,0.98-1.05,1.9-0.54l2.57,1.44l-6.46,1.49l-1.44,2.57L95.42,105.3z M109.34,89.92l-0.48,0.46c1.13,1.14,1.36,2.36,0.73,3.48c-0.85,1.52-2.08,1.55-4.19,0.36c-2.09-1.17-2.74-2.26-1.97-3.62c0.63-1.12,1.88-1.5,3.69-1.06l0.25-0.54l-2.85-1.41l-0.24,0.43l0.17,0.85c-0.67,0.34-1.18,0.87-1.6,1.6c-0.67,1.2-0.84,2.32-0.49,3.46c0.32,1.02,0.98,1.84,1.93,2.37c1.25,0.7,2.56,0.75,3.78,0.17c0.79-0.38,1.44-1.02,1.94-1.9C111.01,92.83,110.78,91.2,109.34,89.92z M113.14,88.6l3.85-6.88l-2.5-1.58l-0.32,0.49c1.36,1.28,1.48,2.37,0.51,4.09c-0.35,0.62-0.48,0.75-0.95,0.49l-2.29-1.28c0.03-0.05,0.05-0.09,0.08-0.14c0.5-0.9,1.08-1.08,2.13-0.71l0.28-0.51l-3.15-1.76l-0.29,0.51c0.85,0.71,1.02,1.28,0.51,2.19c-0.03,0.05-0.05,0.09-0.08,0.14l-2.07-1.16c-0.48-0.27-0.43-0.44-0.1-1.03c0.88-1.57,1.79-2,3.48-1.54l0.28-0.5L110,78.1l-3.73,6.66l0.49,0.28l0.29-0.51c0.25-0.45,0.41-0.45,0.79-0.24l4.88,2.73c0.38,0.22,0.45,0.36,0.2,0.8l-0.28,0.51L113.14,88.6z M111.53,160.38l2.56,0l-1.24-2.65L111.53,160.38z M114.08,162.88l0.61-0.03c0.26-0.01,0.35-0.09,0.35-0.25c0-0.09-0.04-0.19-0.09-0.3l-0.56-1.22l-3.21,0l-0.29,0.58c-0.09,0.19-0.14,0.4-0.14,0.56c0,0.49,0.39,0.66,1.31,0.68v0.57l-3.56,0v-0.57c0.76-0.11,1.18-0.58,1.62-1.46l2.94-5.96h0.94l3.45,6.98c0.16,0.33,0.35,0.44,0.83,0.46v0.57l-4.21,0V162.88z M130.65,161.65c-0.01,0.71-0.16,1.07-0.53,1.07c-0.56,0-0.44-0.81-0.8-1.77c-0.33-0.87-1.01-1.34-1.93-1.37v-0.08c1.78-0.05,2.8-0.78,2.8-1.93c0-1.3-1.14-2-3.37-2l-5.53,0l0,0.57h0.68c0.49,0,0.64,0.12,0.64,0.58l-0.01,5.59c0,0.46-0.15,0.57-0.64,0.57h-0.68v0.58l4.84,0v-0.58h-0.68c-0.48,0-0.63-0.1-0.63-0.57l0-2.64c0.17-0.01,0.35-0.01,0.5-0.01c1.44,0,1.71,0.36,1.79,1.56c0.04,0.6-0.06,1.17,0.26,1.69c0.3,0.49,0.92,0.74,1.82,0.74c1.27,0,2.13-0.65,2.1-2H130.65z M125.34,159.11c-0.18,0-0.34,0-0.53-0.02l0-2.34c0-0.54,0.14-0.6,0.97-0.6c1.49,0,2.11,0.33,2.11,1.46C127.89,158.78,127.14,159.11,125.34,159.11z M139.24,156.11c-0.45,0-0.57,0.13-0.57,0.55l-0.01,5.66c0,0.44,0.1,0.57,0.64,0.57h0.61v0.58l-4.75,0v-0.58h0.63c0.54,0,0.63-0.13,0.63-0.57l0-5.66c0-0.43-0.1-0.56-0.55-0.56c-1,0-1.79,0.88-2.03,2.45h-0.63l0.2-2.97l8.27,0.01l0.2,2.97h-0.61C141.04,156.99,140.25,156.11,139.24,156.11z M136.43,75.38l-0.35-0.62c-0.26-0.47-0.43-0.48-0.81-0.27l-4.87,2.73c-0.38,0.21-0.45,0.35-0.19,0.82l0.35,0.62l-0.51,0.28l-2.41-4.3l0.51-0.28l0.34,0.6c0.26,0.47,0.43,0.49,0.81,0.28l4.87-2.73c0.38-0.21,0.46-0.36,0.19-0.84l-0.34-0.6l0.49-0.28l2.41,4.3L136.43,75.38z M137.67,77.58c0.35,0.57,0.29,0.8,0.2,1.14l-0.07,0.32l-4.13,2.31c-0.84,0.47-1.24,0.48-1.88-0.47l-0.5,0.28l1.76,3.14l0.5-0.28c-0.57-1.05-0.37-1.46,0.52-1.96l3.49-1.96l-2.42,8.13l0.39,0.69l5.25-2.95c0.89-0.5,1.28-0.49,1.85,0.44l0.49-0.28l-1.8-3.22l-0.49,0.28c0.6,1.1,0.43,1.47-0.49,1.99l-2.57,1.44l1.94-6.57l-1.54-2.76L137.67,77.58z M145.11,91.91c0.36-0.2,0.51-0.14,0.72,0.24l0.22,0.38c1.01,1.79,0.62,2.8-1.58,4.03c-2.06,1.15-3.23,1.09-4.06-0.39l-0.42-0.76c-0.22-0.38-0.2-0.53,0.16-0.74L145.11,91.91z M146.47,92.13l-2.16-3.86l-0.49,0.28l0.33,0.59c0.27,0.48,0.19,0.63-0.19,0.84l-4.87,2.73c-0.38,0.21-0.54,0.19-0.81-0.28l-0.33-0.59l-0.5,0.28l2.4,4.28c1.52,2.71,3.64,3.48,5.79,2.28C147.93,97.38,148.19,95.2,146.47,92.13z M152.7,106.95l-2.49,1.4c-0.87,0.49-1.43,0.76-2.12,0.47c-0.42-0.18-0.86-0.6-1.2-1.2c-0.77-1.37-0.49-2.24,0.74-2.93l3.47-1.95c0.38-0.21,0.55-0.19,0.82,0.28l0.31,0.55l0.49-0.28l-2.34-4.17l-0.49,0.28l0.31,0.56c0.26,0.47,0.19,0.63-0.19,0.84l-3.74,2.1c-1.51,0.85-1.69,2.38-0.48,4.54c0.79,1.41,1.66,2.18,2.7,2.31c0.72,0.1,1.3-0.21,2.04-0.62l2.58-1.45c0.71-0.4,1.12-0.38,1.69,0.46l0.49-0.28l-1.69-3.01l-0.49,0.28C153.58,105.98,153.61,106.43,152.7,106.95z M149.6,114.09l0.26,0.47l0.93,0.32c-0.06,0.92,0.16,1.73,0.66,2.63c1.01,1.79,2.48,2.36,3.81,1.62c0.65-0.36,1.07-0.93,1.19-1.57c0.15-0.74-0.07-1.47-0.36-2.37c-0.54-1.68-0.98-2.6-0.18-3.05c0.64-0.36,1.32-0.05,1.85,0.89c0.66,1.18,0.43,2.33-0.55,3.86l0.29,0.51l2.44-1.54l-0.27-0.48l-0.77-0.28c-0.01-0.83-0.22-1.59-0.63-2.34c-0.94-1.68-2.5-2.29-3.72-1.61c-1.23,0.69-1.3,1.92-0.67,3.96c0.32,1.07,0.61,1.8,0.59,2.28c-0.01,0.34-0.19,0.64-0.5,0.81c-0.68,0.38-1.43,0.06-1.97-0.91c-0.74-1.33-0.54-2.81,0.62-4.29l-0.31-0.56L149.6,114.09z M162.54,126.87l0.3,0.54l2.49-1.63l-4.04-7.21l-2.69,1.28l0.31,0.55c1.49-0.56,2.64-0.3,3.13,0.57c0.22,0.39,0.16,0.55-0.21,0.75l-4.94,2.77c-0.38,0.21-0.54,0.2-0.8-0.27l-0.31-0.55l-0.51,0.28l2.33,4.15l0.5-0.28l-0.3-0.54c-0.26-0.47-0.2-0.62,0.18-0.83l4.94-2.77c0.37-0.21,0.54-0.17,0.76,0.22C164.18,124.77,163.8,125.9,162.54,126.87z M169.47,137.24c-1,0.56-2.13,0.03-3.05-1.5l-0.07,0.04c0.43,0.81,0.36,1.64-0.24,2.35c-0.66,0.79-1.43,1.07-1.15,1.56c0.18,0.32,0.57,0.27,1.19-0.06l0.31,0.56c-0.03,0.01-0.05,0.03-0.08,0.04c-1.06,0.6-2.05,0.26-2.7-0.89c-0.44-0.79-0.52-1.45-0.24-1.95c0.3-0.54,0.84-0.73,1.35-1.06c1.01-0.66,1.19-1.07,0.48-2.33c-0.07-0.13-0.16-0.28-0.25-0.43l-2.3,1.29c-0.41,0.23-0.42,0.41-0.19,0.82l0.33,0.59l-0.51,0.28l-2.37-4.23l0.51-0.28l0.33,0.59c0.24,0.43,0.41,0.5,0.81,0.28l4.87-2.73c0.4-0.22,0.43-0.41,0.19-0.84l-0.33-0.59l0.5-0.28l2.7,4.82C170.65,135.27,170.6,136.61,169.47,137.24z M168.56,132.7c-0.41-0.72-0.53-0.81-1-0.55l-2.05,1.15c0.07,0.17,0.15,0.32,0.24,0.47c0.88,1.57,1.54,2.06,2.56,1.49C169.31,134.7,169.29,134,168.56,132.7z M175.05,143.13l-0.5,0.28l0.18,0.32c0.26,0.46,0.23,0.81-0.09,0.98c-0.13,0.08-0.35,0.09-0.66,0.07l-2.13-0.13c0.81-1.85,1.29-2.83,1.44-2.92c0.17-0.1,0.33,0,0.51,0.33l0.18,0.32l0.49-0.28l-2.22-3.95l-0.49,0.28c0.03,0.04,0.04,0.08,0.07,0.12c0.25,0.45,0.18,0.7-0.05,1.2l-1.74,3.76l-1.9,1.07c-0.38,0.21-0.54,0.19-0.81-0.28l-0.37-0.66l-0.51,0.28l2.47,4.4l0.51-0.28l-0.38-0.68c-0.26-0.47-0.2-0.62,0.18-0.83l2.06-1.15l3.58,0.32c0.7,0.07,1.14,0.33,1.46,0.91l0.51-0.28L175.05,143.13z"/>
<path d="M124.27,108.48h1.04v21.73h-1.04V108.48z M190.66,203.1l-6.06-4.15l2.45,6.92l-5.83,4.48l7.35-0.2l2.46,6.96l2.09-7.08l7.37-0.2l-6.09-4.17l2.07-7.05L190.66,203.1z M58.65,203.1l6.06-4.15l-2.45,6.92l5.83,4.49l-7.35-0.2l-2.46,6.96l-2.09-7.08l-7.38-0.2l6.09-4.17l-2.07-7.05L58.65,203.1z M73.04,156.94l-1.35-4.17l-1.36,4.17l-4.4,0l3.55,2.58l-1.37,4.19l3.57-2.59l3.57,2.59l-1.36-4.19l3.55-2.58L73.04,156.94z M183.17,157.39l-3.55,2.58l1.36,4.19l-3.57-2.59l-3.57,2.59l1.37-4.19l-3.55-2.58l4.4,0l1.36-4.17l1.36,4.17L183.17,157.39z M130.12,63.1l-3.55,2.58l1.36,4.19l-3.57-2.59l-3.57,2.59l1.37-4.19l-3.55-2.58h4.4l1.36-4.17l1.36,4.17H130.12z"/>
<g fill="none" stroke="#000000" stroke-miterlimit="10">
	<circle stroke-width="2.2383" cx="125.05" cy="125.22" r="90.28"/>
	<circle stroke-width="2.3565" cx="125.05" cy="125.22" r="118.18"/>
	<circle stroke-width="2.4098" cx="125" cy="125" r="122.8"/>
	<circle stroke-width="2.4098" cx="125" cy="125" r="85.72"/>
	<path stroke-width="2.3333" d="M85.02,149.85l40.01-71.15l40.01,71.15H85.02z M125.03,42.76l-70.46,125.3h140.9L125.03,42.76z"/>
</g>
</svg>